{
  "accessors": [
    {
      "name": "Cube.001-Mesh_positions",
      "componentType": 5126,
      "count": 98064,
      "min": [
        1.575976014137268,
        0.03000199981033802,
        0.87807297706604
      ],
      "max": [
        4.364309787750244,
        1.587623953819275,
        3.467262029647827
      ],
      "type": "VEC3",
      "bufferView": 0,
      "byteOffset": 0
    },
    {
      "name": "Cube.001-Mesh_normals",
      "componentType": 5126,
      "count": 98064,
      "min": [
        -1,
        -1,
        -0.9998999834060669
      ],
      "max": [
        0.9997000098228455,
        1,
        0.9998999834060669
      ],
      "type": "VEC3",
      "bufferView": 0,
      "byteOffset": 1187112
    },
    {
      "name": "Cube.001-Mesh_0_indices",
      "componentType": 5125,
      "count": 142908,
      "min": [
        0
      ],
      "max": [
        98063
      ],
      "type": "SCALAR",
      "bufferView": 1,
      "byteOffset": 0
    },
    {
      "name": "Circle-Mesh_positions",
      "componentType": 5126,
      "count": 862,
      "min": [
        1.9571830034255981,
        0.061260998249053955,
        1.3818989992141724
      ],
      "max": [
        3.932508945465088,
        4.585843086242676,
        2.9037790298461914
      ],
      "type": "VEC3",
      "bufferView": 0,
      "byteOffset": 1176768
    },
    {
      "name": "Circle-Mesh_normals",
      "componentType": 5126,
      "count": 862,
      "min": [
        -0.9891999959945679,
        -0.9614999890327454,
        -0.9940000176429749
      ],
      "max": [
        0.9980000257492065,
        0.9697999954223633,
        0.9944999814033508
      ],
      "type": "VEC3",
      "bufferView": 0,
      "byteOffset": 2363880
    },
    {
      "name": "Circle-Mesh_0_indices",
      "componentType": 5125,
      "count": 1140,
      "min": [
        0
      ],
      "max": [
        861
      ],
      "type": "SCALAR",
      "bufferView": 1,
      "byteOffset": 571632
    }
  ],
  "asset": {
    "generator": "obj2gltf",
    "version": "2.0"
  },
  "buffers": [
    {
      "name": "crystal43",
      "byteLength": 2950416,
      "uri": "data:application/octet-stream;base64,"
    }
  ],
  "bufferViews": [
    {
      "name": "bufferView_0",
      "buffer": 0,
      "byteLength": 2374224,
      "byteOffset": 0,
      "byteStride": 12,
      "target": 34962
    },
    {
      "name": "bufferView_1",
      "buffer": 0,
      "byteLength": 576192,
      "byteOffset": 2374224,
      "target": 34963
    }
  ],
  "materials": [
    {
      "name": "Material.001",
      "pbrMetallicRoughness": {
        "baseColorFactor": [
          0,
          0.8,
          0.742507,
          1
        ],
        "metallicFactor": 0,
        "roughnessFactor": 0.903921569
      },
      "emissiveFactor": [
        0,
        0.3,
        0.27844
      ],
      "alphaMode": "OPAQUE",
      "doubleSided": false
    },
    {
      "name": "Material.003",
      "pbrMetallicRoughness": {
        "baseColorFactor": [
          0.64,
          0.548046,
          0.527869,
          0.4
        ],
        "metallicFactor": 0,
        "roughnessFactor": 0.903921569
      },
      "emissiveFactor": [
        0.32,
        0.274023,
        0.263934
      ],
      "alphaMode": "BLEND",
      "doubleSided": true
    }
  ],
  "meshes": [
    {
      "name": "Cube.001-Mesh",
      "primitives": [
        {
          "attributes": {
            "POSITION": 0,
            "NORMAL": 1
          },
          "indices": 2,
          "material": 0,
          "mode": 4
        }
      ]
    },
    {
      "name": "Circle-Mesh",
      "primitives": [
        {
          "attributes": {
            "POSITION": 3,
            "NORMAL": 4
          },
          "indices": 5,
          "material": 1,
          "mode": 4
        }
      ]
    }
  ],
  "nodes": [
    {
      "name": "Cube.001",
      "mesh": 0
    },
    {
      "name": "Circle",
      "mesh": 1
    }
  ],
  "scene": 0,
  "scenes": [
    {
      "nodes": [
        0,
        1
      ]
    }
  ]
}
