{
  "accessors": [
    {
      "name": "Circle.001-Mesh_positions",
      "componentType": 5126,
      "count": 1724,
      "min": [
        2.1444599628448486,
        -0.11702000349760056,
        1.4852960109710693
      ],
      "max": [
        3.7735390663146973,
        4.6039509773254395,
        2.727510929107666
      ],
      "type": "VEC3",
      "bufferView": 0,
      "byteOffset": 0
    },
    {
      "name": "Circle.001-Mesh_normals",
      "componentType": 5126,
      "count": 1724,
      "min": [
        -0.9987999796867371,
        -0.9970999956130981,
        -0.9995999932289124
      ],
      "max": [
        0.9962000250816345,
        0.9921000003814697,
        0.9995999932289124
      ],
      "type": "VEC3",
      "bufferView": 0,
      "byteOffset": 1218144
    },
    {
      "name": "Circle.001-Mesh_0_indices",
      "componentType": 5125,
      "count": 2301,
      "min": [
        0
      ],
      "max": [
        1723
      ],
      "type": "SCALAR",
      "bufferView": 1,
      "byteOffset": 0
    },
    {
      "name": "Cube.001-Mesh_positions",
      "componentType": 5126,
      "count": 98064,
      "min": [
        1.5193389654159546,
        0.04339899867773056,
        0.6513339877128601
      ],
      "max": [
        4.430316925048828,
        1.3777999877929688,
        3.7263760566711426
      ],
      "type": "VEC3",
      "bufferView": 0,
      "byteOffset": 20688
    },
    {
      "name": "Cube.001-Mesh_normals",
      "componentType": 5126,
      "count": 98064,
      "min": [
        -1,
        -1,
        -0.9998999834060669
      ],
      "max": [
        1,
        1,
        1
      ],
      "type": "VEC3",
      "bufferView": 0,
      "byteOffset": 1238832
    },
    {
      "name": "Cube.001-Mesh_0_indices",
      "componentType": 5125,
      "count": 142767,
      "min": [
        0
      ],
      "max": [
        98063
      ],
      "type": "SCALAR",
      "bufferView": 1,
      "byteOffset": 9204
    },
    {
      "name": "Circle-Mesh_positions",
      "componentType": 5126,
      "count": 1724,
      "min": [
        2.4019179344177246,
        -0.03498600050806999,
        1.535588026046753
      ],
      "max": [
        3.3805038928985596,
        3.6098339557647705,
        2.6001269817352295
      ],
      "type": "VEC3",
      "bufferView": 0,
      "byteOffset": 1197456
    },
    {
      "name": "Circle-Mesh_normals",
      "componentType": 5126,
      "count": 1724,
      "min": [
        -0.9995999932289124,
        -0.951200008392334,
        -0.9995999932289124
      ],
      "max": [
        0.9987999796867371,
        0.9750000238418579,
        0.9980999827384949
      ],
      "type": "VEC3",
      "bufferView": 0,
      "byteOffset": 2415600
    },
    {
      "name": "Circle-Mesh_0_indices",
      "componentType": 5125,
      "count": 2292,
      "min": [
        0
      ],
      "max": [
        1723
      ],
      "type": "SCALAR",
      "bufferView": 1,
      "byteOffset": 580272
    }
  ],
  "asset": {
    "generator": "obj2gltf",
    "version": "2.0"
  },
  "buffers": [
    {
      "name": "crystal25",
      "byteLength": 3025728,
      "uri": "data:application/octet-stream;base64,"
    }
  ],
  "bufferViews": [
    {
      "name": "bufferView_0",
      "buffer": 0,
      "byteLength": 2436288,
      "byteOffset": 0,
      "byteStride": 12,
      "target": 34962
    },
    {
      "name": "bufferView_1",
      "buffer": 0,
      "byteLength": 589440,
      "byteOffset": 2436288,
      "target": 34963
    }
  ],
  "materials": [
    {
      "name": "Material",
      "pbrMetallicRoughness": {
        "baseColorFactor": [
          0.583745,
          0.64,
          0.328599,
          0.390654
        ],
        "metallicFactor": 0,
        "roughnessFactor": 0.903921569
      },
      "emissiveFactor": [
        0.671307,
        0.736,
        0.377889
      ],
      "alphaMode": "BLEND",
      "doubleSided": true
    },
    {
      "name": "Material.001",
      "pbrMetallicRoughness": {
        "baseColorFactor": [
          0.327342,
          0.8,
          0.103585,
          1
        ],
        "metallicFactor": 0,
        "roughnessFactor": 0.903921569
      },
      "emissiveFactor": [
        0.122753,
        0.3,
        0.038844
      ],
      "alphaMode": "OPAQUE",
      "doubleSided": false
    },
    {
      "name": "Material.003",
      "pbrMetallicRoughness": {
        "baseColorFactor": [
          0.012156,
          0.491692,
          0.029303,
          0.4
        ],
        "metallicFactor": 0,
        "roughnessFactor": 0.903921569
      },
      "emissiveFactor": [
        0.008509,
        0.344184,
        0.020512
      ],
      "alphaMode": "BLEND",
      "doubleSided": true
    }
  ],
  "meshes": [
    {
      "name": "Circle.001-Mesh",
      "primitives": [
        {
          "attributes": {
            "POSITION": 0,
            "NORMAL": 1
          },
          "indices": 2,
          "material": 0,
          "mode": 4
        }
      ]
    },
    {
      "name": "Cube.001-Mesh",
      "primitives": [
        {
          "attributes": {
            "POSITION": 3,
            "NORMAL": 4
          },
          "indices": 5,
          "material": 1,
          "mode": 4
        }
      ]
    },
    {
      "name": "Circle-Mesh",
      "primitives": [
        {
          "attributes": {
            "POSITION": 6,
            "NORMAL": 7
          },
          "indices": 8,
          "material": 2,
          "mode": 4
        }
      ]
    }
  ],
  "nodes": [
    {
      "name": "Circle.001",
      "mesh": 0
    },
    {
      "name": "Cube.001",
      "mesh": 1
    },
    {
      "name": "Circle",
      "mesh": 2
    }
  ],
  "scene": 0,
  "scenes": [
    {
      "nodes": [
        0,
        1,
        2
      ]
    }
  ]
}
