{
  "accessors": [
    {
      "name": "Cube.001-Mesh_positions",
      "componentType": 5126,
      "count": 98064,
      "min": [
        1.522994041442871,
        0.04339899867773056,
        0.6733899712562561
      ],
      "max": [
        4.077256202697754,
        1.3777999877929688,
        3.329232931137085
      ],
      "type": "VEC3",
      "bufferView": 0,
      "byteOffset": 0
    },
    {
      "name": "Cube.001-Mesh_normals",
      "componentType": 5126,
      "count": 98064,
      "min": [
        -0.9997000098228455,
        -1,
        -0.9998999834060669
      ],
      "max": [
        0.9998999834060669,
        1,
        1
      ],
      "type": "VEC3",
      "bufferView": 0,
      "byteOffset": 1197456
    },
    {
      "name": "Cube.001-Mesh_0_indices",
      "componentType": 5125,
      "count": 142773,
      "min": [
        0
      ],
      "max": [
        98063
      ],
      "type": "SCALAR",
      "bufferView": 1,
      "byteOffset": 0
    },
    {
      "name": "Circle-Mesh_positions",
      "componentType": 5126,
      "count": 1724,
      "min": [
        1.452955961227417,
        -0.030206000432372093,
        0.8476899862289429
      ],
      "max": [
        3.7127249240875244,
        3.5046579837799072,
        3.2819559574127197
      ],
      "type": "VEC3",
      "bufferView": 0,
      "byteOffset": 1176768
    },
    {
      "name": "Circle-Mesh_normals",
      "componentType": 5126,
      "count": 1724,
      "min": [
        -0.9926999807357788,
        -0.9904000163078308,
        -0.9955000281333923
      ],
      "max": [
        0.9976999759674072,
        0.9952999949455261,
        0.9991000294685364
      ],
      "type": "VEC3",
      "bufferView": 0,
      "byteOffset": 2374224
    },
    {
      "name": "Circle-Mesh_0_indices",
      "componentType": 5125,
      "count": 2286,
      "min": [
        0
      ],
      "max": [
        1723
      ],
      "type": "SCALAR",
      "bufferView": 1,
      "byteOffset": 571092
    }
  ],
  "asset": {
    "generator": "obj2gltf",
    "version": "2.0"
  },
  "buffers": [
    {
      "name": "crystal9",
      "byteLength": 2975148,
      "uri": "data:application/octet-stream;base64,"
    }
  ],
  "bufferViews": [
    {
      "name": "bufferView_0",
      "buffer": 0,
      "byteLength": 2394912,
      "byteOffset": 0,
      "byteStride": 12,
      "target": 34962
    },
    {
      "name": "bufferView_1",
      "buffer": 0,
      "byteLength": 580236,
      "byteOffset": 2394912,
      "target": 34963
    }
  ],
  "materials": [
    {
      "name": "Material.001",
      "pbrMetallicRoughness": {
        "baseColorFactor": [
          0.054832,
          0.64,
          0.603637,
          1
        ],
        "metallicFactor": 0,
        "roughnessFactor": 0.903921569
      },
      "emissiveFactor": [
        0.020562,
        0.24,
        0.226364
      ],
      "alphaMode": "OPAQUE",
      "doubleSided": false
    },
    {
      "name": "Material.003",
      "pbrMetallicRoughness": {
        "baseColorFactor": [
          0.64,
          0.630495,
          0,
          1
        ],
        "metallicFactor": 0,
        "roughnessFactor": 0.903921569
      },
      "emissiveFactor": [
        0.32,
        0.315247,
        0
      ],
      "alphaMode": "OPAQUE",
      "doubleSided": false
    }
  ],
  "meshes": [
    {
      "name": "Cube.001-Mesh",
      "primitives": [
        {
          "attributes": {
            "POSITION": 0,
            "NORMAL": 1
          },
          "indices": 2,
          "material": 0,
          "mode": 4
        }
      ]
    },
    {
      "name": "Circle-Mesh",
      "primitives": [
        {
          "attributes": {
            "POSITION": 3,
            "NORMAL": 4
          },
          "indices": 5,
          "material": 1,
          "mode": 4
        }
      ]
    }
  ],
  "nodes": [
    {
      "name": "Cube.001",
      "mesh": 0
    },
    {
      "name": "Circle",
      "mesh": 1
    }
  ],
  "scene": 0,
  "scenes": [
    {
      "nodes": [
        0,
        1
      ]
    }
  ]
}
