{
  "accessors": [
    {
      "name": "Circle.001-Mesh_positions",
      "componentType": 5126,
      "count": 1724,
      "min": [
        2.6482880115509033,
        0.18911699950695038,
        1.777385950088501
      ],
      "max": [
        3.9713659286499023,
        2.6256980895996094,
        2.655708074569702
      ],
      "type": "VEC3",
      "bufferView": 0,
      "byteOffset": 0
    },
    {
      "name": "Circle.001-Mesh_normals",
      "componentType": 5126,
      "count": 1724,
      "min": [
        -0.9904000163078308,
        -0.9775999784469604,
        -0.9972000122070312
      ],
      "max": [
        0.9848999977111816,
        0.9950000047683716,
        0.996399998664856
      ],
      "type": "VEC3",
      "bufferView": 0,
      "byteOffset": 1197456
    },
    {
      "name": "Circle.001-Mesh_0_indices",
      "componentType": 5125,
      "count": 2274,
      "min": [
        0
      ],
      "max": [
        1723
      ],
      "type": "SCALAR",
      "bufferView": 1,
      "byteOffset": 0
    },
    {
      "name": "Cube.001-Mesh_positions",
      "componentType": 5126,
      "count": 98064,
      "min": [
        1.190472960472107,
        0.05784500017762184,
        0.9689890146255493
      ],
      "max": [
        4.745298862457275,
        1.3199659585952759,
        3.2895851135253906
      ],
      "type": "VEC3",
      "bufferView": 0,
      "byteOffset": 20688
    },
    {
      "name": "Cube.001-Mesh_normals",
      "componentType": 5126,
      "count": 98064,
      "min": [
        -0.9997000098228455,
        -1,
        -1
      ],
      "max": [
        0.9998000264167786,
        0.9998999834060669,
        0.9998999834060669
      ],
      "type": "VEC3",
      "bufferView": 0,
      "byteOffset": 1218144
    },
    {
      "name": "Cube.001-Mesh_0_indices",
      "componentType": 5125,
      "count": 143760,
      "min": [
        0
      ],
      "max": [
        98063
      ],
      "type": "SCALAR",
      "bufferView": 1,
      "byteOffset": 9096
    }
  ],
  "asset": {
    "generator": "obj2gltf",
    "version": "2.0"
  },
  "buffers": [
    {
      "name": "crystal30",
      "byteLength": 2979048,
      "uri": "data:application/octet-stream;base64,"
    }
  ],
  "bufferViews": [
    {
      "name": "bufferView_0",
      "buffer": 0,
      "byteLength": 2394912,
      "byteOffset": 0,
      "byteStride": 12,
      "target": 34962
    },
    {
      "name": "bufferView_1",
      "buffer": 0,
      "byteLength": 584136,
      "byteOffset": 2394912,
      "target": 34963
    }
  ],
  "materials": [
    {
      "name": "Material.003",
      "pbrMetallicRoughness": {
        "baseColorFactor": [
          0,
          0.64,
          0.000807,
          0.4
        ],
        "metallicFactor": 0,
        "roughnessFactor": 0.903921569
      },
      "emissiveFactor": [
        0,
        0.32,
        0.000403
      ],
      "alphaMode": "BLEND",
      "doubleSided": true
    },
    {
      "name": "Material.001",
      "pbrMetallicRoughness": {
        "baseColorFactor": [
          0.042514,
          0.358514,
          0.8,
          1
        ],
        "metallicFactor": 0,
        "roughnessFactor": 0.903921569
      },
      "emissiveFactor": [
        0.015943,
        0.134443,
        0.3
      ],
      "alphaMode": "OPAQUE",
      "doubleSided": false
    }
  ],
  "meshes": [
    {
      "name": "Circle.001-Mesh",
      "primitives": [
        {
          "attributes": {
            "POSITION": 0,
            "NORMAL": 1
          },
          "indices": 2,
          "material": 0,
          "mode": 4
        }
      ]
    },
    {
      "name": "Cube.001-Mesh",
      "primitives": [
        {
          "attributes": {
            "POSITION": 3,
            "NORMAL": 4
          },
          "indices": 5,
          "material": 1,
          "mode": 4
        }
      ]
    }
  ],
  "nodes": [
    {
      "name": "Circle.001",
      "mesh": 0
    },
    {
      "name": "Cube.001",
      "mesh": 1
    }
  ],
  "scene": 0,
  "scenes": [
    {
      "nodes": [
        0,
        1
      ]
    }
  ]
}
