{
  "accessors": [
    {
      "name": "Circle.001-Mesh_positions",
      "componentType": 5126,
      "count": 1722,
      "min": [
        1.929029941558838,
        -0.1800670027732849,
        1.7464150190353394
      ],
      "max": [
        3.229248046875,
        3.288978099822998,
        2.7608590126037598
      ],
      "type": "VEC3",
      "bufferView": 0,
      "byteOffset": 0
    },
    {
      "name": "Circle.001-Mesh_normals",
      "componentType": 5126,
      "count": 1722,
      "min": [
        -0.9994000196456909,
        -0.9696999788284302,
        -0.9994999766349792
      ],
      "max": [
        0.9997000098228455,
        0.9811999797821045,
        0.9984999895095825
      ],
      "type": "VEC3",
      "bufferView": 0,
      "byteOffset": 1218120
    },
    {
      "name": "Circle.001-Mesh_0_indices",
      "componentType": 5125,
      "count": 2286,
      "min": [
        0
      ],
      "max": [
        1721
      ],
      "type": "SCALAR",
      "bufferView": 1,
      "byteOffset": 0
    },
    {
      "name": "Cube.001-Mesh_positions",
      "componentType": 5126,
      "count": 98064,
      "min": [
        1.4957339763641357,
        0.04339899867773056,
        0.15273700654506683
      ],
      "max": [
        4.192173004150391,
        1.3777999877929688,
        3.7195169925689697
      ],
      "type": "VEC3",
      "bufferView": 0,
      "byteOffset": 20664
    },
    {
      "name": "Cube.001-Mesh_normals",
      "componentType": 5126,
      "count": 98064,
      "min": [
        -0.9998000264167786,
        -1,
        -0.9998000264167786
      ],
      "max": [
        1,
        1,
        0.9994999766349792
      ],
      "type": "VEC3",
      "bufferView": 0,
      "byteOffset": 1238784
    },
    {
      "name": "Cube.001-Mesh_0_indices",
      "componentType": 5125,
      "count": 142740,
      "min": [
        0
      ],
      "max": [
        98063
      ],
      "type": "SCALAR",
      "bufferView": 1,
      "byteOffset": 9144
    },
    {
      "name": "Circle-Mesh_positions",
      "componentType": 5126,
      "count": 1724,
      "min": [
        1.9967759847640991,
        -0.08251799643039703,
        1.4575400352478027
      ],
      "max": [
        3.314337968826294,
        4.6554999351501465,
        2.623879909515381
      ],
      "type": "VEC3",
      "bufferView": 0,
      "byteOffset": 1197432
    },
    {
      "name": "Circle-Mesh_normals",
      "componentType": 5126,
      "count": 1724,
      "min": [
        -0.9988999962806702,
        -0.9498999714851379,
        -0.9997000098228455
      ],
      "max": [
        0.9998999834060669,
        0.9713000059127808,
        0.9995999932289124
      ],
      "type": "VEC3",
      "bufferView": 0,
      "byteOffset": 2415552
    },
    {
      "name": "Circle-Mesh_0_indices",
      "componentType": 5125,
      "count": 2292,
      "min": [
        0
      ],
      "max": [
        1723
      ],
      "type": "SCALAR",
      "bufferView": 1,
      "byteOffset": 580104
    }
  ],
  "asset": {
    "generator": "obj2gltf",
    "version": "2.0"
  },
  "buffers": [
    {
      "name": "crystal14",
      "byteLength": 3025512,
      "uri": "data:application/octet-stream;base64,"
    }
  ],
  "bufferViews": [
    {
      "name": "bufferView_0",
      "buffer": 0,
      "byteLength": 2436240,
      "byteOffset": 0,
      "byteStride": 12,
      "target": 34962
    },
    {
      "name": "bufferView_1",
      "buffer": 0,
      "byteLength": 589272,
      "byteOffset": 2436240,
      "target": 34963
    }
  ],
  "materials": [
    {
      "name": "Material.003",
      "pbrMetallicRoughness": {
        "baseColorFactor": [
          0.053793,
          0.162578,
          0.64,
          0.33271
        ],
        "metallicFactor": 0,
        "roughnessFactor": 0.903921569
      },
      "emissiveFactor": [
        0.026897,
        0.081289,
        0.32
      ],
      "alphaMode": "BLEND",
      "doubleSided": true
    },
    {
      "name": "Material.001",
      "pbrMetallicRoughness": {
        "baseColorFactor": [
          0.079242,
          0.010567,
          0.011361,
          1
        ],
        "metallicFactor": 0,
        "roughnessFactor": 0.903921569
      },
      "emissiveFactor": [
        0.029716,
        0.003963,
        0.00426
      ],
      "alphaMode": "OPAQUE",
      "doubleSided": false
    }
  ],
  "meshes": [
    {
      "name": "Circle.001-Mesh",
      "primitives": [
        {
          "attributes": {
            "POSITION": 0,
            "NORMAL": 1
          },
          "indices": 2,
          "material": 0,
          "mode": 4
        }
      ]
    },
    {
      "name": "Cube.001-Mesh",
      "primitives": [
        {
          "attributes": {
            "POSITION": 3,
            "NORMAL": 4
          },
          "indices": 5,
          "material": 1,
          "mode": 4
        }
      ]
    },
    {
      "name": "Circle-Mesh",
      "primitives": [
        {
          "attributes": {
            "POSITION": 6,
            "NORMAL": 7
          },
          "indices": 8,
          "material": 0,
          "mode": 4
        }
      ]
    }
  ],
  "nodes": [
    {
      "name": "Circle.001",
      "mesh": 0
    },
    {
      "name": "Cube.001",
      "mesh": 1
    },
    {
      "name": "Circle",
      "mesh": 2
    }
  ],
  "scene": 0,
  "scenes": [
    {
      "nodes": [
        0,
        1,
        2
      ]
    }
  ]
}
