{
  "accessors": [
    {
      "name": "Cube.001-Mesh_positions",
      "componentType": 5126,
      "count": 98064,
      "min": [
        1.6227459907531738,
        0.06332200020551682,
        0.7545719742774963
      ],
      "max": [
        4.243691921234131,
        1.4926719665527344,
        3.503232955932617
      ],
      "type": "VEC3",
      "bufferView": 0,
      "byteOffset": 0
    },
    {
      "name": "Cube.001-Mesh_normals",
      "componentType": 5126,
      "count": 98064,
      "min": [
        -1,
        -1,
        -0.9998000264167786
      ],
      "max": [
        1,
        1,
        1
      ],
      "type": "VEC3",
      "bufferView": 0,
      "byteOffset": 1187112
    },
    {
      "name": "Cube.001-Mesh_0_indices",
      "componentType": 5125,
      "count": 145488,
      "min": [
        0
      ],
      "max": [
        98063
      ],
      "type": "SCALAR",
      "bufferView": 1,
      "byteOffset": 0
    },
    {
      "name": "Circle-Mesh_positions",
      "componentType": 5126,
      "count": 862,
      "min": [
        2.2373969554901123,
        0.9506019949913025,
        1.6414999961853027
      ],
      "max": [
        3.51045298576355,
        2.754077911376953,
        2.6212470531463623
      ],
      "type": "VEC3",
      "bufferView": 0,
      "byteOffset": 1176768
    },
    {
      "name": "Circle-Mesh_normals",
      "componentType": 5126,
      "count": 862,
      "min": [
        -0.9969000220298767,
        -0.9918000102043152,
        -0.982699990272522
      ],
      "max": [
        0.9842000007629395,
        0.9948999881744385,
        0.987500011920929
      ],
      "type": "VEC3",
      "bufferView": 0,
      "byteOffset": 2363880
    },
    {
      "name": "Circle-Mesh_0_indices",
      "componentType": 5125,
      "count": 1161,
      "min": [
        0
      ],
      "max": [
        861
      ],
      "type": "SCALAR",
      "bufferView": 1,
      "byteOffset": 581952
    }
  ],
  "asset": {
    "generator": "obj2gltf",
    "version": "2.0"
  },
  "buffers": [
    {
      "name": "crystal50",
      "byteLength": 2960820,
      "uri": "data:application/octet-stream;base64,"
    }
  ],
  "bufferViews": [
    {
      "name": "bufferView_0",
      "buffer": 0,
      "byteLength": 2374224,
      "byteOffset": 0,
      "byteStride": 12,
      "target": 34962
    },
    {
      "name": "bufferView_1",
      "buffer": 0,
      "byteLength": 586596,
      "byteOffset": 2374224,
      "target": 34963
    }
  ],
  "materials": [
    {
      "name": "Material.001",
      "pbrMetallicRoughness": {
        "baseColorFactor": [
          0.779137,
          0.686496,
          0.780676,
          1
        ],
        "metallicFactor": 0,
        "roughnessFactor": 0.903921569
      },
      "emissiveFactor": [
        0.292176,
        0.257436,
        0.292754
      ],
      "alphaMode": "OPAQUE",
      "doubleSided": false
    },
    {
      "name": "Material.002",
      "pbrMetallicRoughness": {
        "baseColorFactor": [
          0.64,
          0.574441,
          0.135035,
          1
        ],
        "metallicFactor": 0,
        "roughnessFactor": 0.903921569
      },
      "emissiveFactor": [
        0.696,
        0.624705,
        0.146851
      ],
      "alphaMode": "OPAQUE",
      "doubleSided": false
    }
  ],
  "meshes": [
    {
      "name": "Cube.001-Mesh",
      "primitives": [
        {
          "attributes": {
            "POSITION": 0,
            "NORMAL": 1
          },
          "indices": 2,
          "material": 0,
          "mode": 4
        }
      ]
    },
    {
      "name": "Circle-Mesh",
      "primitives": [
        {
          "attributes": {
            "POSITION": 3,
            "NORMAL": 4
          },
          "indices": 5,
          "material": 1,
          "mode": 4
        }
      ]
    }
  ],
  "nodes": [
    {
      "name": "Cube.001",
      "mesh": 0
    },
    {
      "name": "Circle",
      "mesh": 1
    }
  ],
  "scene": 0,
  "scenes": [
    {
      "nodes": [
        0,
        1
      ]
    }
  ]
}
