{
  "accessors": [
    {
      "name": "Circle.001-Mesh_positions",
      "componentType": 5126,
      "count": 1724,
      "min": [
        2.342132091522217,
        -0.04242200031876564,
        1.218830943107605
      ],
      "max": [
        3.656809091567993,
        4.854198932647705,
        2.648982048034668
      ],
      "type": "VEC3",
      "bufferView": 0,
      "byteOffset": 0
    },
    {
      "name": "Circle.001-Mesh_normals",
      "componentType": 5126,
      "count": 1724,
      "min": [
        -0.9995999932289124,
        -0.951200008392334,
        -0.9995999932289124
      ],
      "max": [
        0.9987999796867371,
        0.9750000238418579,
        0.9980999827384949
      ],
      "type": "VEC3",
      "bufferView": 0,
      "byteOffset": 1218144
    },
    {
      "name": "Circle.001-Mesh_0_indices",
      "componentType": 5125,
      "count": 2292,
      "min": [
        0
      ],
      "max": [
        1723
      ],
      "type": "SCALAR",
      "bufferView": 1,
      "byteOffset": 0
    },
    {
      "name": "Cube.001-Mesh_positions",
      "componentType": 5126,
      "count": 98064,
      "min": [
        1.575976014137268,
        0.04339899867773056,
        0.87807297706604
      ],
      "max": [
        4.364309787750244,
        1.3777999877929688,
        3.467262029647827
      ],
      "type": "VEC3",
      "bufferView": 0,
      "byteOffset": 20688
    },
    {
      "name": "Cube.001-Mesh_normals",
      "componentType": 5126,
      "count": 98064,
      "min": [
        -1,
        -1,
        -0.9998999834060669
      ],
      "max": [
        0.9997000098228455,
        1,
        0.9998999834060669
      ],
      "type": "VEC3",
      "bufferView": 0,
      "byteOffset": 1238832
    },
    {
      "name": "Cube.001-Mesh_0_indices",
      "componentType": 5125,
      "count": 142773,
      "min": [
        0
      ],
      "max": [
        98063
      ],
      "type": "SCALAR",
      "bufferView": 1,
      "byteOffset": 9168
    },
    {
      "name": "Circle-Mesh_positions",
      "componentType": 5126,
      "count": 1724,
      "min": [
        2.2758090496063232,
        -0.08941400051116943,
        1.3263360261917114
      ],
      "max": [
        3.590487003326416,
        4.807207107543945,
        2.7564868927001953
      ],
      "type": "VEC3",
      "bufferView": 0,
      "byteOffset": 1197456
    },
    {
      "name": "Circle-Mesh_normals",
      "componentType": 5126,
      "count": 1724,
      "min": [
        -0.9995999932289124,
        -0.951200008392334,
        -0.9995999932289124
      ],
      "max": [
        0.9987999796867371,
        0.9750000238418579,
        0.9980999827384949
      ],
      "type": "VEC3",
      "bufferView": 0,
      "byteOffset": 2415600
    },
    {
      "name": "Circle-Mesh_0_indices",
      "componentType": 5125,
      "count": 2292,
      "min": [
        0
      ],
      "max": [
        1723
      ],
      "type": "SCALAR",
      "bufferView": 1,
      "byteOffset": 580260
    }
  ],
  "asset": {
    "generator": "obj2gltf",
    "version": "2.0"
  },
  "buffers": [
    {
      "name": "crystal37",
      "byteLength": 3025716,
      "uri": "data:application/octet-stream;base64,"
    }
  ],
  "bufferViews": [
    {
      "name": "bufferView_0",
      "buffer": 0,
      "byteLength": 2436288,
      "byteOffset": 0,
      "byteStride": 12,
      "target": 34962
    },
    {
      "name": "bufferView_1",
      "buffer": 0,
      "byteLength": 589428,
      "byteOffset": 2436288,
      "target": 34963
    }
  ],
  "materials": [
    {
      "name": "Material",
      "pbrMetallicRoughness": {
        "baseColorFactor": [
          0.008649,
          0.64,
          0.008879,
          1
        ],
        "metallicFactor": 0,
        "roughnessFactor": 0.903921569
      },
      "emissiveFactor": [
        0,
        0,
        0
      ],
      "alphaMode": "OPAQUE",
      "doubleSided": false
    },
    {
      "name": "Material.001",
      "pbrMetallicRoughness": {
        "baseColorFactor": [
          0.273999,
          0.8,
          0.154904,
          1
        ],
        "metallicFactor": 0,
        "roughnessFactor": 0.903921569
      },
      "emissiveFactor": [
        0.10275,
        0.3,
        0.058089
      ],
      "alphaMode": "OPAQUE",
      "doubleSided": false
    },
    {
      "name": "Material.003",
      "pbrMetallicRoughness": {
        "baseColorFactor": [
          0.64,
          0.014331,
          0.303853,
          0.4
        ],
        "metallicFactor": 0,
        "roughnessFactor": 0.903921569
      },
      "emissiveFactor": [
        0.456,
        0.010211,
        0.216495
      ],
      "alphaMode": "BLEND",
      "doubleSided": true
    }
  ],
  "meshes": [
    {
      "name": "Circle.001-Mesh",
      "primitives": [
        {
          "attributes": {
            "POSITION": 0,
            "NORMAL": 1
          },
          "indices": 2,
          "material": 0,
          "mode": 4
        }
      ]
    },
    {
      "name": "Cube.001-Mesh",
      "primitives": [
        {
          "attributes": {
            "POSITION": 3,
            "NORMAL": 4
          },
          "indices": 5,
          "material": 1,
          "mode": 4
        }
      ]
    },
    {
      "name": "Circle-Mesh",
      "primitives": [
        {
          "attributes": {
            "POSITION": 6,
            "NORMAL": 7
          },
          "indices": 8,
          "material": 2,
          "mode": 4
        }
      ]
    }
  ],
  "nodes": [
    {
      "name": "Circle.001",
      "mesh": 0
    },
    {
      "name": "Cube.001",
      "mesh": 1
    },
    {
      "name": "Circle",
      "mesh": 2
    }
  ],
  "scene": 0,
  "scenes": [
    {
      "nodes": [
        0,
        1,
        2
      ]
    }
  ]
}
