{
  "accessors": [
    {
      "name": "Circle.001-Mesh_positions",
      "componentType": 5126,
      "count": 862,
      "min": [
        0.8331850171089172,
        -0.1536940038204193,
        0.5608310103416443
      ],
      "max": [
        3.995404005050659,
        4.808235168457031,
        2.8131868839263916
      ],
      "type": "VEC3",
      "bufferView": 0,
      "byteOffset": 0
    },
    {
      "name": "Circle.001-Mesh_normals",
      "componentType": 5126,
      "count": 862,
      "min": [
        -0.9969000220298767,
        -0.9864000082015991,
        -0.9966999888420105
      ],
      "max": [
        0.9977999925613403,
        0.972100019454956,
        0.9882000088691711
      ],
      "type": "VEC3",
      "bufferView": 0,
      "byteOffset": 1197456
    },
    {
      "name": "Circle.001-Mesh_0_indices",
      "componentType": 5125,
      "count": 1179,
      "min": [
        0
      ],
      "max": [
        861
      ],
      "type": "SCALAR",
      "bufferView": 1,
      "byteOffset": 0
    },
    {
      "name": "Cube.001-Mesh_positions",
      "componentType": 5126,
      "count": 98064,
      "min": [
        0.9796839952468872,
        0.074972003698349,
        0.8025529980659485
      ],
      "max": [
        4.606729984283447,
        1.5355000495910645,
        3.2717270851135254
      ],
      "type": "VEC3",
      "bufferView": 0,
      "byteOffset": 10344
    },
    {
      "name": "Cube.001-Mesh_normals",
      "componentType": 5126,
      "count": 98064,
      "min": [
        -0.9998999834060669,
        -1,
        -0.9998999834060669
      ],
      "max": [
        0.9998999834060669,
        1,
        0.9997000098228455
      ],
      "type": "VEC3",
      "bufferView": 0,
      "byteOffset": 1207800
    },
    {
      "name": "Cube.001-Mesh_0_indices",
      "componentType": 5125,
      "count": 144492,
      "min": [
        0
      ],
      "max": [
        98063
      ],
      "type": "SCALAR",
      "bufferView": 1,
      "byteOffset": 4716
    },
    {
      "name": "Circle-Mesh_positions",
      "componentType": 5126,
      "count": 862,
      "min": [
        1.2297389507293701,
        -0.019440000876784325,
        0.8842009902000427
      ],
      "max": [
        3.8729710578918457,
        4.128129959106445,
        2.766896963119507
      ],
      "type": "VEC3",
      "bufferView": 0,
      "byteOffset": 1187112
    },
    {
      "name": "Circle-Mesh_normals",
      "componentType": 5126,
      "count": 862,
      "min": [
        -0.9969000220298767,
        -0.9864000082015991,
        -0.9966999888420105
      ],
      "max": [
        0.9977999925613403,
        0.972100019454956,
        0.9882000088691711
      ],
      "type": "VEC3",
      "bufferView": 0,
      "byteOffset": 2384568
    },
    {
      "name": "Circle-Mesh_0_indices",
      "componentType": 5125,
      "count": 1179,
      "min": [
        0
      ],
      "max": [
        861
      ],
      "type": "SCALAR",
      "bufferView": 1,
      "byteOffset": 582684
    }
  ],
  "asset": {
    "generator": "obj2gltf",
    "version": "2.0"
  },
  "buffers": [
    {
      "name": "crystal7",
      "byteLength": 2982312,
      "uri": "data:application/octet-stream;base64,"
    }
  ],
  "bufferViews": [
    {
      "name": "bufferView_0",
      "buffer": 0,
      "byteLength": 2394912,
      "byteOffset": 0,
      "byteStride": 12,
      "target": 34962
    },
    {
      "name": "bufferView_1",
      "buffer": 0,
      "byteLength": 587400,
      "byteOffset": 2394912,
      "target": 34963
    }
  ],
  "materials": [
    {
      "name": "Material.002",
      "pbrMetallicRoughness": {
        "baseColorFactor": [
          0.031759,
          0.457171,
          0.64,
          0.4
        ],
        "metallicFactor": 0,
        "roughnessFactor": 0.903921569
      },
      "emissiveFactor": [
        0.023819,
        0.342879,
        0.48
      ],
      "alphaMode": "BLEND",
      "doubleSided": true
    },
    {
      "name": "Material.001",
      "pbrMetallicRoughness": {
        "baseColorFactor": [
          0.223175,
          0.64,
          0.096074,
          1
        ],
        "metallicFactor": 0,
        "roughnessFactor": 0.903921569
      },
      "emissiveFactor": [
        0.083691,
        0.24,
        0.036028
      ],
      "alphaMode": "OPAQUE",
      "doubleSided": false
    },
    {
      "name": "Material.003",
      "pbrMetallicRoughness": {
        "baseColorFactor": [
          0.64,
          0.630495,
          0,
          1
        ],
        "metallicFactor": 0,
        "roughnessFactor": 0.903921569
      },
      "emissiveFactor": [
        0.4,
        0.394059,
        0
      ],
      "alphaMode": "OPAQUE",
      "doubleSided": false
    }
  ],
  "meshes": [
    {
      "name": "Circle.001-Mesh",
      "primitives": [
        {
          "attributes": {
            "POSITION": 0,
            "NORMAL": 1
          },
          "indices": 2,
          "material": 0,
          "mode": 4
        }
      ]
    },
    {
      "name": "Cube.001-Mesh",
      "primitives": [
        {
          "attributes": {
            "POSITION": 3,
            "NORMAL": 4
          },
          "indices": 5,
          "material": 1,
          "mode": 4
        }
      ]
    },
    {
      "name": "Circle-Mesh",
      "primitives": [
        {
          "attributes": {
            "POSITION": 6,
            "NORMAL": 7
          },
          "indices": 8,
          "material": 2,
          "mode": 4
        }
      ]
    }
  ],
  "nodes": [
    {
      "name": "Circle.001",
      "mesh": 0
    },
    {
      "name": "Cube.001",
      "mesh": 1
    },
    {
      "name": "Circle",
      "mesh": 2
    }
  ],
  "scene": 0,
  "scenes": [
    {
      "nodes": [
        0,
        1,
        2
      ]
    }
  ]
}
