{
  "accessors": [
    {
      "name": "Circle.001_Circle.002-Mesh_positions",
      "componentType": 5126,
      "count": 862,
      "min": [
        2.320436954498291,
        0.5702469944953918,
        1.3938889503479004
      ],
      "max": [
        3.728656053543091,
        3.8607490062713623,
        3.0194458961486816
      ],
      "type": "VEC3",
      "bufferView": 0,
      "byteOffset": 0
    },
    {
      "name": "Circle.001_Circle.002-Mesh_normals",
      "componentType": 5126,
      "count": 862,
      "min": [
        -0.9904000163078308,
        -0.9472000002861023,
        -0.9866999983787537
      ],
      "max": [
        0.9979000091552734,
        0.9983999729156494,
        0.9955999851226807
      ],
      "type": "VEC3",
      "bufferView": 0,
      "byteOffset": 1197456
    },
    {
      "name": "Circle.001_Circle.002-Mesh_0_indices",
      "componentType": 5125,
      "count": 1167,
      "min": [
        0
      ],
      "max": [
        861
      ],
      "type": "SCALAR",
      "bufferView": 1,
      "byteOffset": 0
    },
    {
      "name": "Cube.001-Mesh_positions",
      "componentType": 5126,
      "count": 98064,
      "min": [
        1.512961983680725,
        0.039503999054431915,
        0.816457986831665
      ],
      "max": [
        4.436916828155518,
        1.4388079643249512,
        3.5315821170806885
      ],
      "type": "VEC3",
      "bufferView": 0,
      "byteOffset": 10344
    },
    {
      "name": "Cube.001-Mesh_normals",
      "componentType": 5126,
      "count": 98064,
      "min": [
        -1,
        -1,
        -0.9998999834060669
      ],
      "max": [
        0.9997000098228455,
        1,
        0.9998999834060669
      ],
      "type": "VEC3",
      "bufferView": 0,
      "byteOffset": 1207800
    },
    {
      "name": "Cube.001-Mesh_0_indices",
      "componentType": 5125,
      "count": 142773,
      "min": [
        0
      ],
      "max": [
        98063
      ],
      "type": "SCALAR",
      "bufferView": 1,
      "byteOffset": 4668
    },
    {
      "name": "Circle-Mesh_positions",
      "componentType": 5126,
      "count": 862,
      "min": [
        2.13326096534729,
        0.4198180139064789,
        1.3140579462051392
      ],
      "max": [
        3.892461061477661,
        2.7540769577026367,
        3.078731060028076
      ],
      "type": "VEC3",
      "bufferView": 0,
      "byteOffset": 1187112
    },
    {
      "name": "Circle-Mesh_normals",
      "componentType": 5126,
      "count": 862,
      "min": [
        -0.9706000089645386,
        -0.9801999926567078,
        -0.9812999963760376
      ],
      "max": [
        0.9937999844551086,
        0.9993000030517578,
        0.9883999824523926
      ],
      "type": "VEC3",
      "bufferView": 0,
      "byteOffset": 2384568
    },
    {
      "name": "Circle-Mesh_0_indices",
      "componentType": 5125,
      "count": 1167,
      "min": [
        0
      ],
      "max": [
        861
      ],
      "type": "SCALAR",
      "bufferView": 1,
      "byteOffset": 575760
    }
  ],
  "asset": {
    "generator": "obj2gltf",
    "version": "2.0"
  },
  "buffers": [
    {
      "name": "crystal35",
      "byteLength": 2975340,
      "uri": "data:application/octet-stream;base64,"
    }
  ],
  "bufferViews": [
    {
      "name": "bufferView_0",
      "buffer": 0,
      "byteLength": 2394912,
      "byteOffset": 0,
      "byteStride": 12,
      "target": 34962
    },
    {
      "name": "bufferView_1",
      "buffer": 0,
      "byteLength": 580428,
      "byteOffset": 2394912,
      "target": 34963
    }
  ],
  "materials": [
    {
      "name": "Material",
      "pbrMetallicRoughness": {
        "baseColorFactor": [
          0.283335,
          0.64,
          0.017163,
          1
        ],
        "metallicFactor": 0,
        "roughnessFactor": 0.903921569
      },
      "emissiveFactor": [
        0,
        0,
        0
      ],
      "alphaMode": "OPAQUE",
      "doubleSided": false
    },
    {
      "name": "Material.001",
      "pbrMetallicRoughness": {
        "baseColorFactor": [
          0.095328,
          0.8,
          0.353526,
          1
        ],
        "metallicFactor": 0,
        "roughnessFactor": 0.903921569
      },
      "emissiveFactor": [
        0.035748,
        0.3,
        0.132572
      ],
      "alphaMode": "OPAQUE",
      "doubleSided": false
    },
    {
      "name": "Material.003",
      "pbrMetallicRoughness": {
        "baseColorFactor": [
          0.086173,
          0.105868,
          0.64,
          0.4
        ],
        "metallicFactor": 0,
        "roughnessFactor": 0.903921569
      },
      "emissiveFactor": [
        0.052781,
        0.064844,
        0.392
      ],
      "alphaMode": "BLEND",
      "doubleSided": true
    }
  ],
  "meshes": [
    {
      "name": "Circle.001_Circle.002-Mesh",
      "primitives": [
        {
          "attributes": {
            "POSITION": 0,
            "NORMAL": 1
          },
          "indices": 2,
          "material": 0,
          "mode": 4
        }
      ]
    },
    {
      "name": "Cube.001-Mesh",
      "primitives": [
        {
          "attributes": {
            "POSITION": 3,
            "NORMAL": 4
          },
          "indices": 5,
          "material": 1,
          "mode": 4
        }
      ]
    },
    {
      "name": "Circle-Mesh",
      "primitives": [
        {
          "attributes": {
            "POSITION": 6,
            "NORMAL": 7
          },
          "indices": 8,
          "material": 2,
          "mode": 4
        }
      ]
    }
  ],
  "nodes": [
    {
      "name": "Circle.001_Circle.002",
      "mesh": 0
    },
    {
      "name": "Cube.001",
      "mesh": 1
    },
    {
      "name": "Circle",
      "mesh": 2
    }
  ],
  "scene": 0,
  "scenes": [
    {
      "nodes": [
        0,
        1,
        2
      ]
    }
  ]
}
