{
  "accessors": [
    {
      "name": "Cube.001-Mesh_positions",
      "componentType": 5126,
      "count": 98064,
      "min": [
        1.726578950881958,
        -0.026799000799655914,
        1.069653034210205
      ],
      "max": [
        3.817924976348877,
        1.5714720487594604,
        2.979702949523926
      ],
      "type": "VEC3",
      "bufferView": 0,
      "byteOffset": 0
    },
    {
      "name": "Cube.001-Mesh_normals",
      "componentType": 5126,
      "count": 98064,
      "min": [
        -0.9998000264167786,
        -1,
        -1
      ],
      "max": [
        0.9995999932289124,
        1,
        0.9998999834060669
      ],
      "type": "VEC3",
      "bufferView": 0,
      "byteOffset": 1187112
    },
    {
      "name": "Cube.001-Mesh_0_indices",
      "componentType": 5125,
      "count": 141198,
      "min": [
        0
      ],
      "max": [
        98063
      ],
      "type": "SCALAR",
      "bufferView": 1,
      "byteOffset": 0
    },
    {
      "name": "Circle-Mesh_positions",
      "componentType": 5126,
      "count": 862,
      "min": [
        1.69965398311615,
        -0.04514800012111664,
        1.1864069700241089
      ],
      "max": [
        3.538649082183838,
        4.8484368324279785,
        2.621117115020752
      ],
      "type": "VEC3",
      "bufferView": 0,
      "byteOffset": 1176768
    },
    {
      "name": "Circle-Mesh_normals",
      "componentType": 5126,
      "count": 862,
      "min": [
        -0.9988999962806702,
        -0.964900016784668,
        -0.9955999851226807
      ],
      "max": [
        0.9986000061035156,
        0.9366999864578247,
        0.9884999990463257
      ],
      "type": "VEC3",
      "bufferView": 0,
      "byteOffset": 2363880
    },
    {
      "name": "Circle-Mesh_0_indices",
      "componentType": 5125,
      "count": 591,
      "min": [
        0
      ],
      "max": [
        430
      ],
      "type": "SCALAR",
      "bufferView": 1,
      "byteOffset": 564792
    },
    {
      "name": "Circle-Mesh_1_indices",
      "componentType": 5125,
      "count": 591,
      "min": [
        431
      ],
      "max": [
        861
      ],
      "type": "SCALAR",
      "bufferView": 1,
      "byteOffset": 567156
    }
  ],
  "asset": {
    "generator": "obj2gltf",
    "version": "2.0"
  },
  "buffers": [
    {
      "name": "crystal6",
      "byteLength": 2943744,
      "uri": "data:application/octet-stream;base64,"
    }
  ],
  "bufferViews": [
    {
      "name": "bufferView_0",
      "buffer": 0,
      "byteLength": 2374224,
      "byteOffset": 0,
      "byteStride": 12,
      "target": 34962
    },
    {
      "name": "bufferView_1",
      "buffer": 0,
      "byteLength": 569520,
      "byteOffset": 2374224,
      "target": 34963
    }
  ],
  "materials": [
    {
      "name": "Material.001",
      "pbrMetallicRoughness": {
        "baseColorFactor": [
          0.055493,
          0.026437,
          0.64,
          1
        ],
        "metallicFactor": 0,
        "roughnessFactor": 0.903921569
      },
      "emissiveFactor": [
        0.02081,
        0.009914,
        0.24
      ],
      "alphaMode": "OPAQUE",
      "doubleSided": false
    },
    {
      "name": "None.001",
      "pbrMetallicRoughness": {
        "baseColorFactor": [
          0.8,
          0,
          0.437025,
          0.4
        ],
        "metallicFactor": 0,
        "roughnessFactor": 1
      },
      "emissiveFactor": [
        0.16,
        0,
        0.087405
      ],
      "alphaMode": "BLEND",
      "doubleSided": true
    },
    {
      "name": "Material.002",
      "pbrMetallicRoughness": {
        "baseColorFactor": [
          0.64,
          0.463456,
          0.077513,
          1
        ],
        "metallicFactor": 0,
        "roughnessFactor": 0.903921569
      },
      "emissiveFactor": [
        0.24,
        0.173796,
        0.029067
      ],
      "alphaMode": "OPAQUE",
      "doubleSided": false
    }
  ],
  "meshes": [
    {
      "name": "Cube.001-Mesh",
      "primitives": [
        {
          "attributes": {
            "POSITION": 0,
            "NORMAL": 1
          },
          "indices": 2,
          "material": 0,
          "mode": 4
        }
      ]
    },
    {
      "name": "Circle-Mesh",
      "primitives": [
        {
          "attributes": {
            "POSITION": 3,
            "NORMAL": 4
          },
          "indices": 5,
          "material": 1,
          "mode": 4
        },
        {
          "attributes": {
            "POSITION": 3,
            "NORMAL": 4
          },
          "indices": 6,
          "material": 2,
          "mode": 4
        }
      ]
    }
  ],
  "nodes": [
    {
      "name": "Cube.001",
      "mesh": 0
    },
    {
      "name": "Circle",
      "mesh": 1
    }
  ],
  "scene": 0,
  "scenes": [
    {
      "nodes": [
        0,
        1
      ]
    }
  ]
}
