{
  "accessors": [
    {
      "name": "Circle.002_Circle.003-Mesh_positions",
      "componentType": 5126,
      "count": 1724,
      "min": [
        1.9031389951705933,
        -0.38557499647140503,
        1.905761957168579
      ],
      "max": [
        2.9743409156799316,
        2.9393539428710938,
        2.7034730911254883
      ],
      "type": "VEC3",
      "bufferView": 0,
      "byteOffset": 0
    },
    {
      "name": "Circle.002_Circle.003-Mesh_normals",
      "componentType": 5126,
      "count": 1724,
      "min": [
        -0.9987000226974487,
        -0.9864000082015991,
        -0.9983999729156494
      ],
      "max": [
        0.9954000115394592,
        0.9941999912261963,
        0.9876000285148621
      ],
      "type": "VEC3",
      "bufferView": 0,
      "byteOffset": 1238832
    },
    {
      "name": "Circle.002_Circle.003-Mesh_0_indices",
      "componentType": 5125,
      "count": 2286,
      "min": [
        0
      ],
      "max": [
        1723
      ],
      "type": "SCALAR",
      "bufferView": 1,
      "byteOffset": 0
    },
    {
      "name": "Circle.001_Circle.002-Mesh_positions",
      "componentType": 5126,
      "count": 1724,
      "min": [
        1.7315460443496704,
        -0.19996100664138794,
        1.913681983947754
      ],
      "max": [
        2.802747964859009,
        4.242499828338623,
        2.7113940715789795
      ],
      "type": "VEC3",
      "bufferView": 0,
      "byteOffset": 20688
    },
    {
      "name": "Circle.001_Circle.002-Mesh_normals",
      "componentType": 5126,
      "count": 1724,
      "min": [
        -0.9991999864578247,
        -0.9761000275611877,
        -0.9983999729156494
      ],
      "max": [
        0.9965999722480774,
        0.9897000193595886,
        0.9878000020980835
      ],
      "type": "VEC3",
      "bufferView": 0,
      "byteOffset": 1259520
    },
    {
      "name": "Circle.001_Circle.002-Mesh_0_indices",
      "componentType": 5125,
      "count": 2286,
      "min": [
        0
      ],
      "max": [
        1723
      ],
      "type": "SCALAR",
      "bufferView": 1,
      "byteOffset": 9144
    },
    {
      "name": "Cube.001-Mesh_positions",
      "componentType": 5126,
      "count": 98064,
      "min": [
        1.5187790393829346,
        0.08845899999141693,
        1.1018890142440796
      ],
      "max": [
        4.024598121643066,
        1.011549949645996,
        3.2851600646972656
      ],
      "type": "VEC3",
      "bufferView": 0,
      "byteOffset": 41376
    },
    {
      "name": "Cube.001-Mesh_normals",
      "componentType": 5126,
      "count": 98064,
      "min": [
        -0.9998999834060669,
        -1,
        -1
      ],
      "max": [
        0.9998000264167786,
        0.9998999834060669,
        0.9998000264167786
      ],
      "type": "VEC3",
      "bufferView": 0,
      "byteOffset": 1280208
    },
    {
      "name": "Cube.001-Mesh_0_indices",
      "componentType": 5125,
      "count": 144930,
      "min": [
        0
      ],
      "max": [
        98063
      ],
      "type": "SCALAR",
      "bufferView": 1,
      "byteOffset": 18288
    },
    {
      "name": "Circle-Mesh_positions",
      "componentType": 5126,
      "count": 1724,
      "min": [
        1.931117057800293,
        -0.33987700939178467,
        1.8204610347747803
      ],
      "max": [
        3.0023200511932373,
        2.9850521087646484,
        2.6181719303131104
      ],
      "type": "VEC3",
      "bufferView": 0,
      "byteOffset": 1218144
    },
    {
      "name": "Circle-Mesh_normals",
      "componentType": 5126,
      "count": 1724,
      "min": [
        -0.9987000226974487,
        -0.9864000082015991,
        -0.9983999729156494
      ],
      "max": [
        0.9954000115394592,
        0.9941999912261963,
        0.9876000285148621
      ],
      "type": "VEC3",
      "bufferView": 0,
      "byteOffset": 2456976
    },
    {
      "name": "Circle-Mesh_0_indices",
      "componentType": 5125,
      "count": 2286,
      "min": [
        0
      ],
      "max": [
        1723
      ],
      "type": "SCALAR",
      "bufferView": 1,
      "byteOffset": 598008
    }
  ],
  "asset": {
    "generator": "obj2gltf",
    "version": "2.0"
  },
  "buffers": [
    {
      "name": "crystal21",
      "byteLength": 3084816,
      "uri": "data:application/octet-stream;base64,"
    }
  ],
  "bufferViews": [
    {
      "name": "bufferView_0",
      "buffer": 0,
      "byteLength": 2477664,
      "byteOffset": 0,
      "byteStride": 12,
      "target": 34962
    },
    {
      "name": "bufferView_1",
      "buffer": 0,
      "byteLength": 607152,
      "byteOffset": 2477664,
      "target": 34963
    }
  ],
  "materials": [
    {
      "name": "Material",
      "pbrMetallicRoughness": {
        "baseColorFactor": [
          0.64,
          0,
          0.438249,
          0.7
        ],
        "metallicFactor": 0,
        "roughnessFactor": 0.903921569
      },
      "emissiveFactor": [
        0.888,
        0,
        0.608071
      ],
      "alphaMode": "BLEND",
      "doubleSided": true
    },
    {
      "name": "Material.001",
      "pbrMetallicRoughness": {
        "baseColorFactor": [
          0.644426,
          0.01136,
          0.146784,
          1
        ],
        "metallicFactor": 0,
        "roughnessFactor": 0.903921569
      },
      "emissiveFactor": [
        0.24166,
        0.00426,
        0.055044
      ],
      "alphaMode": "OPAQUE",
      "doubleSided": false
    }
  ],
  "meshes": [
    {
      "name": "Circle.002_Circle.003-Mesh",
      "primitives": [
        {
          "attributes": {
            "POSITION": 0,
            "NORMAL": 1
          },
          "indices": 2,
          "material": 0,
          "mode": 4
        }
      ]
    },
    {
      "name": "Circle.001_Circle.002-Mesh",
      "primitives": [
        {
          "attributes": {
            "POSITION": 3,
            "NORMAL": 4
          },
          "indices": 5,
          "material": 0,
          "mode": 4
        }
      ]
    },
    {
      "name": "Cube.001-Mesh",
      "primitives": [
        {
          "attributes": {
            "POSITION": 6,
            "NORMAL": 7
          },
          "indices": 8,
          "material": 1,
          "mode": 4
        }
      ]
    },
    {
      "name": "Circle-Mesh",
      "primitives": [
        {
          "attributes": {
            "POSITION": 9,
            "NORMAL": 10
          },
          "indices": 11,
          "material": 0,
          "mode": 4
        }
      ]
    }
  ],
  "nodes": [
    {
      "name": "Circle.002_Circle.003",
      "mesh": 0
    },
    {
      "name": "Circle.001_Circle.002",
      "mesh": 1
    },
    {
      "name": "Cube.001",
      "mesh": 2
    },
    {
      "name": "Circle",
      "mesh": 3
    }
  ],
  "scene": 0,
  "scenes": [
    {
      "nodes": [
        0,
        1,
        2,
        3
      ]
    }
  ]
}
