{
  "accessors": [
    {
      "name": "Circle.002_Circle.003-Mesh_positions",
      "componentType": 5126,
      "count": 1722,
      "min": [
        1.8114629983901978,
        0.10751699656248093,
        1.4152259826660156
      ],
      "max": [
        3.090188980102539,
        3.9930410385131836,
        2.568321943283081
      ],
      "type": "VEC3",
      "bufferView": 0,
      "byteOffset": 0
    },
    {
      "name": "Circle.002_Circle.003-Mesh_normals",
      "componentType": 5126,
      "count": 1722,
      "min": [
        -0.9987999796867371,
        -0.965399980545044,
        -0.9980999827384949
      ],
      "max": [
        0.9979000091552734,
        0.98580002784729,
        1
      ],
      "type": "VEC3",
      "bufferView": 0,
      "byteOffset": 1197432
    },
    {
      "name": "Circle.002_Circle.003-Mesh_0_indices",
      "componentType": 5125,
      "count": 2286,
      "min": [
        0
      ],
      "max": [
        1721
      ],
      "type": "SCALAR",
      "bufferView": 1,
      "byteOffset": 0
    },
    {
      "name": "Cube.001-Mesh_positions",
      "componentType": 5126,
      "count": 98064,
      "min": [
        1.6920620203018188,
        0.08845899999141693,
        1.2372759580612183
      ],
      "max": [
        3.8795039653778076,
        1.011549949645996,
        3.138231039047241
      ],
      "type": "VEC3",
      "bufferView": 0,
      "byteOffset": 20664
    },
    {
      "name": "Cube.001-Mesh_normals",
      "componentType": 5126,
      "count": 98064,
      "min": [
        -1,
        -1,
        -0.9997000098228455
      ],
      "max": [
        0.9998999834060669,
        0.9998999834060669,
        1
      ],
      "type": "VEC3",
      "bufferView": 0,
      "byteOffset": 1218096
    },
    {
      "name": "Cube.001-Mesh_0_indices",
      "componentType": 5125,
      "count": 145020,
      "min": [
        0
      ],
      "max": [
        98063
      ],
      "type": "SCALAR",
      "bufferView": 1,
      "byteOffset": 9144
    }
  ],
  "asset": {
    "generator": "obj2gltf",
    "version": "2.0"
  },
  "buffers": [
    {
      "name": "crystal19",
      "byteLength": 2984088,
      "uri": "data:application/octet-stream;base64,"
    }
  ],
  "bufferViews": [
    {
      "name": "bufferView_0",
      "buffer": 0,
      "byteLength": 2394864,
      "byteOffset": 0,
      "byteStride": 12,
      "target": 34962
    },
    {
      "name": "bufferView_1",
      "buffer": 0,
      "byteLength": 589224,
      "byteOffset": 2394864,
      "target": 34963
    }
  ],
  "materials": [
    {
      "name": "Material",
      "pbrMetallicRoughness": {
        "baseColorFactor": [
          0.332434,
          0.194769,
          0.64,
          0.7
        ],
        "metallicFactor": 0,
        "roughnessFactor": 0.903921569
      },
      "emissiveFactor": [
        0.166217,
        0.097384,
        0.32
      ],
      "alphaMode": "BLEND",
      "doubleSided": true
    },
    {
      "name": "Material.001",
      "pbrMetallicRoughness": {
        "baseColorFactor": [
          0,
          0.644426,
          0.411626,
          1
        ],
        "metallicFactor": 0,
        "roughnessFactor": 0.903921569
      },
      "emissiveFactor": [
        0,
        0.24166,
        0.15436
      ],
      "alphaMode": "OPAQUE",
      "doubleSided": false
    }
  ],
  "meshes": [
    {
      "name": "Circle.002_Circle.003-Mesh",
      "primitives": [
        {
          "attributes": {
            "POSITION": 0,
            "NORMAL": 1
          },
          "indices": 2,
          "material": 0,
          "mode": 4
        }
      ]
    },
    {
      "name": "Cube.001-Mesh",
      "primitives": [
        {
          "attributes": {
            "POSITION": 3,
            "NORMAL": 4
          },
          "indices": 5,
          "material": 1,
          "mode": 4
        }
      ]
    }
  ],
  "nodes": [
    {
      "name": "Circle.002_Circle.003",
      "mesh": 0
    },
    {
      "name": "Cube.001",
      "mesh": 1
    }
  ],
  "scene": 0,
  "scenes": [
    {
      "nodes": [
        0,
        1
      ]
    }
  ]
}
