{
  "accessors": [
    {
      "name": "Circle.001-Mesh_positions",
      "componentType": 5126,
      "count": 1724,
      "min": [
        2.150592088699341,
        -0.11668000370264053,
        1.4293270111083984
      ],
      "max": [
        3.773516893386841,
        3.5516719818115234,
        2.8110599517822266
      ],
      "type": "VEC3",
      "bufferView": 0,
      "byteOffset": 0
    },
    {
      "name": "Circle.001-Mesh_normals",
      "componentType": 5126,
      "count": 1724,
      "min": [
        -0.9966999888420105,
        -0.9781000018119812,
        -0.9994999766349792
      ],
      "max": [
        0.9926000237464905,
        0.9761000275611877,
        0.9995999932289124
      ],
      "type": "VEC3",
      "bufferView": 0,
      "byteOffset": 1218144
    },
    {
      "name": "Circle.001-Mesh_0_indices",
      "componentType": 5125,
      "count": 2304,
      "min": [
        0
      ],
      "max": [
        1723
      ],
      "type": "SCALAR",
      "bufferView": 1,
      "byteOffset": 0
    },
    {
      "name": "Cube.001-Mesh_positions",
      "componentType": 5126,
      "count": 98064,
      "min": [
        1.3299429416656494,
        0.0321820005774498,
        0.44214001297950745
      ],
      "max": [
        4.648653984069824,
        1.55348801612854,
        3.9478940963745117
      ],
      "type": "VEC3",
      "bufferView": 0,
      "byteOffset": 20688
    },
    {
      "name": "Cube.001-Mesh_normals",
      "componentType": 5126,
      "count": 98064,
      "min": [
        -1,
        -1,
        -0.9998999834060669
      ],
      "max": [
        1,
        1,
        1
      ],
      "type": "VEC3",
      "bufferView": 0,
      "byteOffset": 1238832
    },
    {
      "name": "Cube.001-Mesh_0_indices",
      "componentType": 5125,
      "count": 142767,
      "min": [
        0
      ],
      "max": [
        98063
      ],
      "type": "SCALAR",
      "bufferView": 1,
      "byteOffset": 9216
    },
    {
      "name": "Circle-Mesh_positions",
      "componentType": 5126,
      "count": 1724,
      "min": [
        2.4019179344177246,
        -0.03498600050806999,
        1.535588026046753
      ],
      "max": [
        3.3805038928985596,
        3.6098339557647705,
        2.6001269817352295
      ],
      "type": "VEC3",
      "bufferView": 0,
      "byteOffset": 1197456
    },
    {
      "name": "Circle-Mesh_normals",
      "componentType": 5126,
      "count": 1724,
      "min": [
        -0.9995999932289124,
        -0.951200008392334,
        -0.9995999932289124
      ],
      "max": [
        0.9987999796867371,
        0.9750000238418579,
        0.9980999827384949
      ],
      "type": "VEC3",
      "bufferView": 0,
      "byteOffset": 2415600
    },
    {
      "name": "Circle-Mesh_0_indices",
      "componentType": 5125,
      "count": 2292,
      "min": [
        0
      ],
      "max": [
        1723
      ],
      "type": "SCALAR",
      "bufferView": 1,
      "byteOffset": 580284
    }
  ],
  "asset": {
    "generator": "obj2gltf",
    "version": "2.0"
  },
  "buffers": [
    {
      "name": "crystal26",
      "byteLength": 3025740,
      "uri": "data:application/octet-stream;base64,"
    }
  ],
  "bufferViews": [
    {
      "name": "bufferView_0",
      "buffer": 0,
      "byteLength": 2436288,
      "byteOffset": 0,
      "byteStride": 12,
      "target": 34962
    },
    {
      "name": "bufferView_1",
      "buffer": 0,
      "byteLength": 589452,
      "byteOffset": 2436288,
      "target": 34963
    }
  ],
  "materials": [
    {
      "name": "Material",
      "pbrMetallicRoughness": {
        "baseColorFactor": [
          0.029812,
          0,
          0.64,
          0.390654
        ],
        "metallicFactor": 0,
        "roughnessFactor": 0.903921569
      },
      "emissiveFactor": [
        0.034284,
        0,
        0.736
      ],
      "alphaMode": "BLEND",
      "doubleSided": true
    },
    {
      "name": "Material.001",
      "pbrMetallicRoughness": {
        "baseColorFactor": [
          0.086944,
          0.031057,
          0.416338,
          1
        ],
        "metallicFactor": 0,
        "roughnessFactor": 0.903921569
      },
      "emissiveFactor": [
        0.032604,
        0.011646,
        0.156127
      ],
      "alphaMode": "OPAQUE",
      "doubleSided": false
    },
    {
      "name": "Material.003",
      "pbrMetallicRoughness": {
        "baseColorFactor": [
          0.010055,
          0.006081,
          0.491692,
          0.4
        ],
        "metallicFactor": 0,
        "roughnessFactor": 0.903921569
      },
      "emissiveFactor": [
        0.007038,
        0.004257,
        0.344184
      ],
      "alphaMode": "BLEND",
      "doubleSided": true
    }
  ],
  "meshes": [
    {
      "name": "Circle.001-Mesh",
      "primitives": [
        {
          "attributes": {
            "POSITION": 0,
            "NORMAL": 1
          },
          "indices": 2,
          "material": 0,
          "mode": 4
        }
      ]
    },
    {
      "name": "Cube.001-Mesh",
      "primitives": [
        {
          "attributes": {
            "POSITION": 3,
            "NORMAL": 4
          },
          "indices": 5,
          "material": 1,
          "mode": 4
        }
      ]
    },
    {
      "name": "Circle-Mesh",
      "primitives": [
        {
          "attributes": {
            "POSITION": 6,
            "NORMAL": 7
          },
          "indices": 8,
          "material": 2,
          "mode": 4
        }
      ]
    }
  ],
  "nodes": [
    {
      "name": "Circle.001",
      "mesh": 0
    },
    {
      "name": "Cube.001",
      "mesh": 1
    },
    {
      "name": "Circle",
      "mesh": 2
    }
  ],
  "scene": 0,
  "scenes": [
    {
      "nodes": [
        0,
        1,
        2
      ]
    }
  ]
}
